<?xml version="1.0" encoding="UTF-8" standalone="no"?>
<!-- Generator: Adobe Illustrator 17.0.1, SVG Export Plug-In . SVG Version: 6.00 Build 0)  -->

<svg
   xmlns:dc="http://purl.org/dc/elements/1.1/"
   xmlns:cc="http://creativecommons.org/ns#"
   xmlns:rdf="http://www.w3.org/1999/02/22-rdf-syntax-ns#"
   xmlns:svg="http://www.w3.org/2000/svg"
   xmlns="http://www.w3.org/2000/svg"
   xmlns:xlink="http://www.w3.org/1999/xlink"
   xmlns:sodipodi="http://sodipodi.sourceforge.net/DTD/sodipodi-0.dtd"
   xmlns:inkscape="http://www.inkscape.org/namespaces/inkscape"
   version="1.1"
   x="0px"
   y="0px"
   width="86px"
   height="86px"
   viewBox="0 0 86 86"
   enable-background="new 0 0 86 86"
   xml:space="preserve"
   id="svg21"
   sodipodi:docname="tsubame.svg"
   inkscape:version="0.92.2 (5c3e80d, 2017-08-06)"><metadata
     id="metadata27"><rdf:RDF><cc:Work
         rdf:about=""><dc:format>image/svg+xml</dc:format><dc:type
           rdf:resource="http://purl.org/dc/dcmitype/StillImage" /><dc:title></dc:title></cc:Work></rdf:RDF></metadata><defs
     id="defs25"><linearGradient
       gradientTransform="rotate(-90,43,43)"
       y2="0.7169"
       x2="85.2831"
       y1="85.2831"
       x1="0.7169"
       gradientUnits="userSpaceOnUse"
       id="SVGID_1_"><stop
         id="stop4574"
         style="stop-color:#EB424A"
         offset="0" /><stop
         id="stop4576"
         style="stop-color:#FF7500"
         offset="1" /></linearGradient><linearGradient
       inkscape:collect="always"
       xlink:href="#SVGID_1_-7"
       id="linearGradient4545"
       x1="0.30000001"
       y1="43"
       x2="85.699997"
       y2="43"
       gradientUnits="userSpaceOnUse" /></defs><sodipodi:namedview
     pagecolor="#ffffff"
     bordercolor="#666666"
     borderopacity="1"
     objecttolerance="10"
     gridtolerance="10"
     guidetolerance="10"
     inkscape:pageopacity="0"
     inkscape:pageshadow="2"
     inkscape:window-width="1600"
     inkscape:window-height="830"
     id="namedview23"
     showgrid="false"
     inkscape:zoom="5.4883721"
     inkscape:cx="28.062429"
     inkscape:cy="43.173728"
     inkscape:window-x="0"
     inkscape:window-y="33"
     inkscape:window-maximized="1"
     inkscape:current-layer="Layer_1" /><g
     id="Layer_2"
     display="none" /><g
     id="Layer_1"><linearGradient
       id="SVGID_1_-7"
       gradientUnits="userSpaceOnUse"
       x1="0.7169"
       y1="85.2831"
       x2="85.2831"
       y2="0.7169"
       gradientTransform="rotate(-90,43,43)"><stop
         offset="0"
         style="stop-color:#EB424A"
         id="stop3" /><stop
         offset="1"
         style="stop-color:#FF7500"
         id="stop5" /></linearGradient><path
       d="M 1.723,85.7 H 43 C 66.583,85.7 85.7,66.582 85.7,43 V 1.723 C 85.7,0.937 85.063,0.3 84.277,0.3 H 43 C 19.417,0.3 0.3,19.418 0.3,43 v 41.277 c 0,0.786 0.637,1.423 1.423,1.423 z"
       id="path8"
       style="opacity:1;fill:#0090ff;fill-opacity:1"
       inkscape:connector-curvature="0" /><path
       style="fill:#00ffff;stroke-width:0.2004467"
       d="m 11.482877,73.329701 c -0.241234,-0.933632 1.225522,-3.018818 1.257414,-3.308784 0.0224,-1.568948 0.407356,-5.087471 1.180148,-6.512318 0.648835,-1.196304 2.588126,-3.126706 4.242247,-4.222798 1.325987,-0.878655 3.024546,-2.349721 3.184895,-2.758329 0.04921,-0.125403 -0.581628,0.0069 -1.417199,0.297362 -2.673586,0.929136 -5.928294,0.664772 -7.463193,-0.606191 -0.948339,-0.785272 -1.89264,-2.809334 -2.292605,-4.914076 -0.3336644,-1.755899 0.08864,-4.933908 0.915777,-6.89152 1.114476,-2.637663 2.991899,-5.683731 5.504987,-8.931671 3.487734,-4.50759 8.57279,-11.511732 9.357104,-12.888447 0.51086,-0.896715 1.36347,-2.337207 1.946548,-3.063719 1.253699,-1.562111 1.132051,-1.535264 1.535192,-2.347141 0.121738,-0.245172 0.359683,2.862665 -0.496697,5.166186 l -0.800495,1.749406 0.484148,0.801648 c 0.618182,1.023572 0.578245,1.761275 -0.186309,3.44138 -0.328634,0.722173 -0.591034,1.742348 -0.604692,2.351008 -0.01761,0.784926 -0.292617,1.621857 -1.018513,3.099724 -0.54692,1.113469 -0.934016,2.162861 -0.86022,2.331989 0.314142,0.719973 -0.411342,2.952114 -1.470273,4.523664 0,0 -0.552717,0.630301 -0.55874,1.709392 0.284119,0.877342 1.325137,5.240808 5.055374,2.277474 0.06482,-0.02829 0.591544,-0.759618 1.170486,-1.625141 0.578951,-0.865533 2.05377,-2.78586 3.277373,-4.267407 4.798175,-5.809655 5.170507,-6.421337 8.922897,-14.658982 1.679986,-3.688096 4.099167,-9.729437 5.049777,-12.61066 0.671226,-2.0344293 1.265458,-2.22378 1.265458,-2.22378 0.553193,-0.4811658 0.537378,2.372906 0.139066,4.319261 -0.162155,0.792466 -0.217445,1.522703 -0.122756,1.622778 0.332179,0.351129 0.06612,2.133551 -0.570037,3.818892 -0.379811,1.00621 -0.626128,2.09698 -0.602618,2.668605 0.06608,1.606475 -0.184305,2.700347 -1.283931,5.609296 l -1.050887,2.780086 1.812867,-1.839882 c 1.976041,-2.005487 2.863691,-2.703854 3.168409,-2.492781 0.116008,0.08036 0.727349,-0.52871 1.503669,-1.498117 2.118667,-2.645634 5.048273,-5.123106 5.970643,-5.049187 0.322891,0.02588 1.060747,-0.451981 2.947152,-1.90874 3.676766,-2.839312 3.747547,-2.6078 6.190822,-3.250035 0.185563,-0.04877 -0.07756,0.602563 -0.215843,0.804217 -0.637108,0.929016 -3.806756,3.97841 -6.564839,6.315772 -5.211464,4.4165 -5.840498,4.985199 -7.841501,7.089428 -2.671503,2.809322 -7.568222,9.159006 -8.148627,10.566503 -0.681281,1.652139 -1.051887,3.679066 -1.225167,6.70077 -0.136767,2.384965 -0.104067,2.774448 0.28693,3.417697 4.065062,2.714782 3.555561,0.858191 7.2703,1.704678 0.03529,-0.01539 1.011512,-0.747017 2.169354,-1.625792 1.228309,-0.932265 2.815303,-1.953543 3.81009,-2.451913 1.573671,-0.788384 1.759221,-0.839737 2.409995,-0.667149 0.583249,0.154677 0.96702,0.08142 2.221274,-0.423993 1.539347,-0.620276 2.981421,-0.807911 3.348138,-0.435607 0.145649,0.147901 0.542315,0.02951 1.502435,-0.44845 1.637876,-0.815325 2.924028,-1.029836 3.433092,-0.572598 0.352093,0.316258 0.522198,0.284798 2.571171,-0.475553 2.397108,-0.889543 4.910228,-1.382351 5.6986,-1.11747 0.356585,0.0162 1.261324,0.02921 1.322223,0.249861 0,0 -0.8082,0.831642 -4.420429,2.738772 -2.101889,1.109718 -3.964244,2.141871 -4.138574,2.29368 -0.174335,0.151792 -1.237024,0.873955 -2.361539,1.604779 -2.703958,1.757293 -5.109437,3.589699 -8.206996,6.251792 -2.678788,2.302194 -6.198229,5.139546 -7.199469,5.804165 -6.938063,4.605473 -12.02198,6.006964 -16.745009,4.616132 -0.86634,-0.255125 -1.974636,-0.712489 -2.462874,-1.016371 l -0.887709,-0.552507 -1.023936,0.561862 c -0.563152,0.309024 -2.074943,0.904775 -3.359628,1.323669 l -2.335705,0.761795 -0.555659,0.89276 c -0.929236,1.493007 -2.129892,2.353344 -4.52882,3.245176 -2.028652,0.754178 -3.868309,0.666191 -5.559325,0.560696 -1.431866,0.415627 -2.761445,1.429941 -3.545248,1.584729 z"
       id="path4579"
       inkscape:connector-curvature="0"
       sodipodi:nodetypes="ccscsscccsssscccsccsccccsscsccsccccccccscsscscccccccccsccsscsccscccccsccc" /></g></svg>